<?xml version="1.0" standalone="no"?>
<!DOCTYPE svg PUBLIC "-//W3C//DTD SVG 20010904//EN"
 "http://www.w3.org/TR/2001/REC-SVG-20010904/DTD/svg10.dtd">
<svg version="1.0" xmlns="http://www.w3.org/2000/svg"
 width="480.000000pt" height="480.000000pt" viewBox="0 0 480.000000 480.000000"
 preserveAspectRatio="xMidYMid meet">

<g transform="translate(0.000000,480.000000) scale(0.100000,-0.100000)"
fill="#000000" stroke="none">
<path d="M2220 4794 c-14 -2 -65 -9 -115 -15 -657 -77 -1266 -438 -1654 -979
-282 -395 -431 -835 -448 -1325 -29 -831 373 -1609 1071 -2075 592 -396 1339
-504 2029 -295 523 158 981 499 1290 959 535 794 542 1844 18 2643 -105 160
-184 258 -315 389 -373 372 -826 598 -1366 681 -91 13 -458 26 -510 17z m555
-153 c94 -18 212 -46 264 -62 188 -59 595 -280 609 -331 2 -10 9 -18 14 -18
20 0 178 -135 178 -153 0 -5 25 -36 55 -69 30 -34 52 -65 49 -69 -3 -5 10 -25
28 -45 18 -19 44 -52 58 -72 14 -20 58 -83 98 -139 39 -56 72 -105 72 -108 0
-4 19 -44 41 -88 40 -79 95 -213 125 -307 43 -130 64 -503 31 -536 -4 -4 -7
-20 -7 -36 0 -15 -4 -28 -9 -28 -5 0 -12 -14 -16 -30 -4 -17 -10 -28 -14 -25
-11 6 -61 -51 -61 -70 0 -9 -11 -20 -25 -25 -14 -5 -25 -17 -25 -25 0 -9 -4
-13 -10 -10 -5 3 -10 -3 -10 -14 0 -14 -6 -21 -20 -21 -22 0 -27 -15 -7 -23 6
-3 1 -6 -12 -6 -16 -1 -21 -5 -17 -16 3 -9 0 -15 -9 -15 -8 0 -15 -7 -15 -15
0 -8 -5 -15 -11 -15 -6 0 -17 -7 -25 -15 -9 -8 -11 -15 -5 -15 6 0 11 -5 11
-11 0 -5 -4 -8 -8 -5 -5 3 -14 -11 -21 -31 -10 -26 -15 -32 -22 -22 -6 10 -9
10 -9 2 0 -13 -50 -63 -63 -63 -12 0 -37 -27 -37 -39 0 -6 -7 -11 -15 -11 -9
0 -20 -11 -27 -25 -6 -13 -15 -22 -19 -19 -5 3 -14 -7 -20 -23 -5 -15 -15 -31
-21 -34 -7 -4 -13 -15 -14 -24 -1 -9 -10 -28 -20 -43 -10 -15 -19 -31 -20 -37
-4 -26 -35 -87 -41 -82 -7 8 -33 -11 -33 -25 0 -5 6 -6 13 -2 7 4 9 3 4 -2 -5
-5 -14 -9 -20 -9 -7 0 -12 -10 -11 -22 0 -12 -3 -20 -7 -17 -9 5 -59 -58 -59
-74 0 -7 -9 -12 -20 -12 -18 0 -57 -54 -52 -72 1 -4 -13 -10 -31 -14 -21 -4
-42 -19 -62 -45 -17 -22 -42 -42 -58 -45 -19 -5 -26 -11 -23 -21 3 -8 1 -11
-4 -8 -6 4 -25 -8 -43 -25 -47 -47 -222 -160 -246 -160 -12 0 -62 -20 -111
-45 -101 -51 -99 -45 -42 -125 15 -21 10 -18 -13 10 -268 317 -567 390 -842
207 -75 -50 -141 -111 -222 -202 -56 -64 -57 -61 -4 22 19 30 27 50 19 47 -22
-8 -176 70 -293 148 -40 26 -79 48 -88 48 -20 0 -51 23 -119 88 -27 26 -53 47
-58 47 -4 0 -7 2 -6 5 4 12 -24 50 -37 50 -18 0 -49 29 -58 54 -4 11 -13 16
-22 12 -8 -3 -17 -1 -20 4 -3 5 3 11 12 13 14 4 13 5 -4 6 -12 0 -25 6 -28 11
-4 6 -10 8 -15 5 -4 -3 -15 8 -24 23 l-17 27 20 -24 c12 -13 21 -18 21 -12 0
13 -36 51 -48 51 -5 0 -14 11 -20 24 -6 13 -25 41 -44 62 -18 21 -27 34 -20
30 7 -4 4 7 -7 25 -11 18 -18 36 -15 41 3 4 -1 8 -10 8 -8 0 -17 13 -21 30 -4
16 -13 33 -20 37 -7 5 -15 17 -17 28 -3 22 -30 54 -40 48 -3 -1 -4 7 -1 19 4
19 3 20 -6 8 -7 -10 -11 -11 -11 -2 0 6 -7 12 -15 12 -9 0 -20 11 -25 24 -5
13 -22 30 -39 37 -17 8 -31 18 -31 23 0 5 -13 21 -29 35 -15 14 -32 37 -36 51
-4 13 -14 30 -21 38 -8 7 -14 21 -15 30 0 14 -2 13 -9 -3 -7 -18 -8 -18 -15 8
-4 15 -13 27 -21 27 -8 0 -14 7 -14 15 0 8 -7 15 -15 15 -8 0 -15 9 -15 21 0
11 -4 17 -10 14 -5 -3 -10 3 -10 13 0 11 -9 22 -20 25 -11 3 -25 19 -31 36 -6
17 -15 31 -20 31 -5 0 -9 7 -9 15 0 8 -5 15 -11 15 -12 0 -44 30 -32 30 4 0 0
6 -9 13 -9 8 -19 27 -22 43 -2 16 -5 29 -6 29 -21 0 -15 303 8 425 30 160 168
488 248 592 16 20 52 69 79 109 28 40 60 83 73 95 12 13 21 27 20 31 -5 13 43
86 86 132 89 95 143 148 181 176 22 16 49 40 60 51 32 35 190 133 325 202 214
109 318 143 585 191 149 27 174 29 375 26 150 -1 199 -6 345 -34z m-140 -3670
c39 -12 57 -19 40 -16 -147 25 -386 29 -510 10 l-30 -5 30 10 c102 35 351 35
470 1z m102 -27 c-3 -3 -12 -4 -19 -1 -8 3 -5 6 6 6 11 1 17 -2 13 -5z"/>
<path d="M1180 2799 c-43 -17 -60 -40 -60 -79 0 -67 45 -89 210 -100 82 -5
136 -15 188 -33 83 -29 199 -93 254 -140 l38 -32 -68 0 c-79 0 -113 -19 -161
-91 -117 -177 -104 -482 27 -617 49 -51 85 -69 139 -69 194 0 309 375 192 623
l-30 62 45 -41 c64 -59 126 -56 126 7 0 53 -189 262 -330 365 -149 110 -281
156 -439 155 -58 0 -117 -5 -131 -10z"/>
<path d="M3305 2787 c-98 -33 -178 -76 -270 -145 -137 -102 -315 -302 -315
-353 0 -63 62 -66 126 -7 l45 41 -30 -62 c-117 -248 -2 -623 192 -623 150 0
261 201 244 443 -7 99 -33 176 -81 246 -46 68 -96 94 -169 91 l-59 -3 39 32
c56 48 172 111 255 140 52 19 105 28 188 33 166 11 214 35 208 106 -2 27 -11
43 -31 58 -25 18 -44 21 -150 23 -105 3 -132 0 -192 -20z"/>
<path d="M516 2448 c3 -4 9 -8 15 -8 5 0 9 4 9 8 0 5 -7 9 -15 9 -8 0 -12 -4
-9 -9z"/>
</g>
</svg>
